<svg width="24" height="24" viewBox="0 0 24 24" fill="none" xmlns="http://www.w3.org/2000/svg">
  <mask id="mask0_0_7833" style="mask-type:alpha" maskUnits="userSpaceOnUse" x="4" y="4" width="16" height="16">
  <path fill-rule="evenodd" clip-rule="evenodd" d="M13.4933 12L19.68 5.81333C20.1067 5.38667 20.1067 4.74667 19.68 4.32C19.2533 3.89333 18.6133 3.89333 18.1867 4.32L12 10.5067L5.81333 4.32C5.38667 3.89333 4.74667 3.89333 4.32 4.32C3.89333 4.74667 3.89333 5.38667 4.32 5.81333L10.5067 12L4.32 18.1867C3.89333 18.6133 3.89333 19.2533 4.32 19.68C4.53333 19.8933 4.8 20 5.06667 20C5.33333 20 5.6 19.8933 5.81333 19.68L12 13.4933L18.1867 19.68C18.4 19.8933 18.6667 20 18.9333 20C19.2 20 19.4667 19.8933 19.68 19.68C20.1067 19.2533 20.1067 18.6133 19.68 18.1867L13.4933 12Z" fill="white"/>
  </mask>
  <g mask="url(#mask0_0_7833)">
  <rect width="24" height="24" fill="#1A1818"/>
  </g>
</svg>
